<svg xmlns="http://www.w3.org/2000/svg" viewBox="0 0 96 96" shape-rendering="crispEdges">
<rect width="96" height="96" fill="#10241d"/>
<rect x="4" y="4" width="88" height="88" rx="10" fill="#173228"/>
<ellipse cx="49" cy="69" rx="29" ry="6" fill="#0b1813"/>
<polygon points="29,61 17,79 38,70" fill="#332e2a"/>
<rect x="38" y="70" width="5" height="13" fill="#b07c56"/><rect x="58" y="70" width="5" height="13" fill="#b07c56"/>
<rect x="35" y="81" width="12" height="3" fill="#b07c56"/><rect x="57" y="81" width="12" height="3" fill="#b07c56"/>
<ellipse cx="48" cy="56" rx="27" ry="22" fill="#9d7a58"/>
<ellipse cx="54" cy="59" rx="17" ry="15" fill="#332e2a"/>
<rect x="40" y="57" width="22" height="8" fill="#e9d8b8"/>
<circle cx="54" cy="32" r="18" fill="#9d7a58"/>
<rect x="40" y="25" width="28" height="8" fill="#332e2a"/>
<polygon points="65,28 79,33 65,37" fill="#c49a55"/>
<rect x="59" y="28" width="5" height="5" fill="#f4e9b8"/><rect x="61" y="29" width="3" height="3" fill="#111"/>
<rect x="27" y="48" width="9" height="8" fill="#e37b32"/>
<rect x="22" y="55" width="7" height="7" fill="#e37b32"/>
<rect x="68" y="49" width="5" height="6" fill="#e9d8b8"/>
</svg>